<svg width="1365" height="420" viewBox="0 0 1365 420" fill="none" xmlns="http://www.w3.org/2000/svg">
  <defs>
    <linearGradient id="bg" x1="220" y1="0" x2="1365" y2="420" gradientUnits="userSpaceOnUse">
      <stop stop-color="#F6F8FC"/>
      <stop offset="1" stop-color="#E9EEF8"/>
    </linearGradient>
    <linearGradient id="card" x1="0" y1="0" x2="420" y2="220" gradientUnits="userSpaceOnUse">
      <stop stop-color="#FFFFFF"/>
      <stop offset="1" stop-color="#F6F9FF"/>
    </linearGradient>
    <filter id="shadow" x="0" y="0" width="500" height="260" filterUnits="userSpaceOnUse" color-interpolation-filters="sRGB">
      <feDropShadow dx="0" dy="10" stdDeviation="18" flood-color="#A8B9D6" flood-opacity="0.18"/>
    </filter>
  </defs>

  <rect width="1365" height="420" fill="url(#bg)"/>
  <rect width="220" height="420" fill="#16284C"/>

  <text x="42" y="62" fill="#FFFFFF" font-family="Georgia, serif" font-size="20" font-weight="700">ProPAS</text>
  <text x="120" y="62" fill="#8FB2F3" font-family="Georgia, serif" font-size="15">Org</text>

  <rect x="16" y="116" width="184" height="38" rx="8" fill="#3568E6"/>
  <text x="54" y="140" fill="#FFFFFF" font-family="Arial, sans-serif" font-size="15" font-weight="700">Dashboard</text>

  <text x="36" y="184" fill="#C4D0EA" font-family="Arial, sans-serif" font-size="14">Create Document</text>
  <text x="36" y="224" fill="#C4D0EA" font-family="Arial, sans-serif" font-size="14">Submission History</text>
  <text x="36" y="390" fill="#FF6B6B" font-family="Arial, sans-serif" font-size="14" font-weight="700">Logout</text>

  <text x="268" y="58" fill="#12386F" font-family="Georgia, serif" font-size="31" font-weight="700">Welcome, ICONS</text>
  <text x="268" y="86" fill="#6F87AA" font-family="Arial, sans-serif" font-size="14">Manage your project proposals and track approval status.</text>

  <g filter="url(#shadow)">
    <rect x="1015" y="34" width="270" height="108" rx="22" fill="url(#card)"/>
  </g>

  <rect x="1037" y="55" width="52" height="52" rx="16" fill="#DDE8FF"/>
  <circle cx="1063" cy="73" r="10" fill="#3568E6"/>
  <path d="M1049 96C1049 88.268 1055.27 82 1063 82C1070.73 82 1077 88.268 1077 96" fill="#3568E6"/>

  <text x="1104" y="71" fill="#6A81A8" font-family="Arial, sans-serif" font-size="11" letter-spacing="1.2">ACCOUNT TYPE</text>
  <text x="1104" y="95" fill="#12386F" font-family="Arial, sans-serif" font-size="18" font-weight="700">Organization</text>

  <rect x="1104" y="106" width="121" height="24" rx="12" fill="#E8F0FF"/>
  <text x="1126" y="122" fill="#3568E6" font-family="Arial, sans-serif" font-size="11" font-weight="700" letter-spacing="0.8">ICONS ACTIVE</text>

  <g filter="url(#shadow)">
    <rect x="268" y="124" width="338" height="120" rx="18" fill="white"/>
    <rect x="624" y="124" width="338" height="120" rx="18" fill="white"/>
    <rect x="980" y="124" width="338" height="120" rx="18" fill="white"/>
  </g>

  <text x="292" y="160" fill="#8A9DC1" font-family="Arial, sans-serif" font-size="13" font-weight="700" letter-spacing="1.3">PENDING REVIEW</text>
  <text x="292" y="219" fill="#E88A11" font-family="Georgia, serif" font-size="38" font-weight="700">0</text>
  <rect x="538" y="181" width="46" height="46" rx="12" fill="#FFF1C9"/>

  <text x="648" y="160" fill="#8A9DC1" font-family="Arial, sans-serif" font-size="13" font-weight="700" letter-spacing="1.3">APPROVED DOCS</text>
  <text x="648" y="219" fill="#0D9E56" font-family="Georgia, serif" font-size="38" font-weight="700">0</text>
  <rect x="894" y="181" width="46" height="46" rx="12" fill="#DDF8E8"/>

  <text x="1004" y="160" fill="#8A9DC1" font-family="Arial, sans-serif" font-size="13" font-weight="700" letter-spacing="1.3">ACTION REQUIRED</text>
  <text x="1004" y="219" fill="#E73838" font-family="Georgia, serif" font-size="38" font-weight="700">0</text>
  <rect x="1250" y="181" width="46" height="46" rx="12" fill="#FFE3E3"/>

  <g filter="url(#shadow)">
    <rect x="268" y="276" width="1050" height="140" rx="18" fill="white"/>
  </g>
  <text x="298" y="322" fill="#12386F" font-family="Georgia, serif" font-size="21" font-weight="700">Recent Project Submissions</text>
  <rect x="1222" y="300" width="68" height="36" rx="10" fill="#3568E6"/>
  <text x="1242" y="322" fill="#FFFFFF" font-family="Arial, sans-serif" font-size="14" font-weight="700">Create</text>
  <text x="730" y="381" fill="#9AAACC" font-family="Arial, sans-serif" font-size="15">No proposals found.</text>
</svg>
